# Blender v2.78 (sub 0) OBJ File: 'pinkbench.blend'
# www.blender.org
mtllib bench.mtl
o Cube.002
v -1.000000 0.005666 4.108105
v -1.000000 0.891811 4.108105
v -1.000000 0.005666 3.827142
v -1.000000 0.891811 3.827142
v 1.000000 0.005666 4.108105
v 1.000000 0.891811 4.108105
v 1.000000 0.005666 3.827142
v 1.000000 0.891811 3.827142
vt 0.3333 0.6667
vt 0.6667 0.3333
vt 0.6667 0.6667
vt 0.0000 0.6667
vt 0.3333 0.3333
vt 0.3333 0.6667
vt 0.0000 0.3333
vt 0.3333 0.0000
vt 0.3333 0.0000
vt 0.6667 0.3333
vt 0.3333 0.3333
vt 0.6667 0.3333
vt 1.0000 0.0000
vt 1.0000 0.3333
vt 0.3333 1.0000
vt 0.0000 0.6667
vt 0.3333 0.6667
vt 0.3333 0.3333
vt 0.0000 0.0000
vt 0.6667 0.0000
vt 0.6667 0.0000
vt 0.0000 1.0000
vn -1.0000 0.0000 0.0000
vn 0.0000 0.0000 -1.0000
vn 1.0000 0.0000 0.0000
vn 0.0000 0.0000 1.0000
vn 0.0000 -1.0000 0.0000
vn 0.0000 1.0000 0.0000
usemtl None
s off
f 2/1/1 3/2/1 1/3/1
f 4/4/2 7/5/2 3/6/2
f 8/7/3 5/8/3 7/5/3
f 6/9/4 1/10/4 5/11/4
f 7/12/5 1/13/5 3/14/5
f 4/15/6 6/16/6 8/17/6
f 2/1/1 4/18/1 3/2/1
f 4/4/2 8/7/2 7/5/2
f 8/7/3 6/19/3 5/8/3
f 6/9/4 2/20/4 1/10/4
f 7/12/5 5/21/5 1/13/5
f 4/15/6 2/22/6 6/16/6
o Cube.001
v -1.000000 0.005666 0.139277
v -1.000000 0.891811 0.139277
v -1.000000 0.005666 -0.141686
v -1.000000 0.891811 -0.141686
v 1.000000 0.005666 0.139277
v 1.000000 0.891811 0.139277
v 1.000000 0.005666 -0.141686
v 1.000000 0.891811 -0.141686
vt 0.3333 0.6667
vt 0.6667 0.3333
vt 0.6667 0.6667
vt 0.0000 0.6667
vt 0.3333 0.3333
vt 0.3333 0.6667
vt 0.0000 0.3333
vt 0.3333 0.0000
vt 0.3333 0.0000
vt 0.6667 0.3333
vt 0.3333 0.3333
vt 0.6667 0.3333
vt 1.0000 0.0000
vt 1.0000 0.3333
vt 0.3333 1.0000
vt 0.0000 0.6667
vt 0.3333 0.6667
vt 0.3333 0.3333
vt 0.0000 0.0000
vt 0.6667 0.0000
vt 0.6667 0.0000
vt 0.0000 1.0000
vn -1.0000 0.0000 0.0000
vn 0.0000 0.0000 -1.0000
vn 1.0000 0.0000 0.0000
vn 0.0000 0.0000 1.0000
vn 0.0000 -1.0000 0.0000
vn 0.0000 1.0000 0.0000
usemtl None
s off
f 10/23/7 11/24/7 9/25/7
f 12/26/8 15/27/8 11/28/8
f 16/29/9 13/30/9 15/27/9
f 14/31/10 9/32/10 13/33/10
f 15/34/11 9/35/11 11/36/11
f 12/37/12 14/38/12 16/39/12
f 10/23/7 12/40/7 11/24/7
f 12/26/8 16/29/8 15/27/8
f 16/29/9 14/41/9 13/30/9
f 14/31/10 10/42/10 9/32/10
f 15/34/11 13/43/11 9/35/11
f 12/37/12 10/44/12 14/38/12
o Cube
v 1.000000 0.884278 -0.967615
v 1.000000 0.884278 4.951988
v -1.000000 0.884278 4.951987
v -1.000000 0.884278 -0.967616
v 1.000000 1.146765 -0.967613
v 0.999999 1.146765 4.951989
v -1.000000 1.146765 4.951987
v -1.000000 1.146765 -0.967615
vt -0.0006 -0.0681
vt -1.2863 -1.3538
vt -1.2863 -0.0681
vt -0.0006 -0.0681
vt -1.2863 -1.3538
vt -0.0006 -1.3538
vt 0.0045 1.8655
vt -1.2813 0.5797
vt 0.0045 0.5797
vt -0.0006 1.8655
vt -1.2863 0.5797
vt -0.0006 0.5797
vt 0.0045 1.8655
vt 1.2902 0.5797
vt 0.0045 0.5797
vt -0.0006 -0.7060
vt -1.2863 0.5797
vt -0.0006 0.5797
vt -0.0006 -1.3538
vt -1.2863 -0.0681
vt -1.2813 1.8655
vt -1.2863 1.8655
vt 1.2902 1.8655
vt -1.2863 -0.7060
vn 0.0000 -1.0000 -0.0000
vn 0.0000 1.0000 0.0000
vn 1.0000 -0.0000 0.0000
vn 0.0000 -0.0000 1.0000
vn -1.0000 -0.0000 -0.0000
vn 0.0000 0.0000 -1.0000
usemtl Material
s off
f 17/45/13 19/46/13 20/47/13
f 21/48/14 23/49/14 22/50/14
f 21/51/15 18/52/15 17/53/15
f 22/54/16 19/55/16 18/56/16
f 23/57/17 20/58/17 19/59/17
f 17/60/18 24/61/18 21/62/18
f 17/45/13 18/63/13 19/46/13
f 21/48/14 24/64/14 23/49/14
f 21/51/15 22/65/15 18/52/15
f 22/54/16 23/66/16 19/55/16
f 23/57/17 24/67/17 20/58/17
f 17/60/18 20/68/18 24/61/18
