# Blender v2.78 (sub 0) OBJ File: ''
# www.blender.org
mtllib blueandwhitecone.mtl
o Cone
v 0.000000 0.032985 -1.000000
v 0.195090 0.032985 -0.980785
v 0.382683 0.032985 -0.923880
v 0.555570 0.032985 -0.831470
v 0.707107 0.032985 -0.707107
v 0.831470 0.032985 -0.555570
v 0.923880 0.032985 -0.382683
v 0.980785 0.032985 -0.195090
v 1.000000 0.032985 -0.000000
v 0.000000 2.032985 0.000000
v 0.980785 0.032985 0.195090
v 0.923880 0.032985 0.382683
v 0.831470 0.032985 0.555570
v 0.707107 0.032985 0.707107
v 0.555570 0.032985 0.831470
v 0.382683 0.032985 0.923880
v 0.195090 0.032985 0.980785
v -0.000000 0.032985 1.000000
v -0.195091 0.032985 0.980785
v -0.382684 0.032985 0.923879
v -0.555571 0.032985 0.831469
v -0.707107 0.032985 0.707106
v -0.831470 0.032985 0.555570
v -0.923880 0.032985 0.382683
v -0.980785 0.032985 0.195089
v -1.000000 0.032985 -0.000001
v -0.980785 0.032985 -0.195091
v -0.923879 0.032985 -0.382684
v -0.831469 0.032985 -0.555571
v -0.707106 0.032985 -0.707108
v -0.555569 0.032985 -0.831470
v -0.382682 0.032985 -0.923880
v -0.195089 0.032985 -0.980786
vt 0.4623 0.3987
vt 0.7579 0.0000
vt 0.4920 0.4225
vt 0.5266 0.4443
vt 0.5649 0.4634
vt 0.6053 0.4789
vt 0.6464 0.4903
vt 0.6866 0.4971
vt 0.7242 0.4991
vt 0.7579 0.4962
vt 0.0000 0.8440
vt 0.2932 0.4485
vt 0.0251 0.8671
vt 0.0563 0.8887
vt 0.0924 0.9081
vt 0.1318 0.9244
vt 0.1732 0.9370
vt 0.2150 0.9454
vt 0.2555 0.9494
vt 0.2932 0.9488
vt 0.7320 0.9177
vt 1.0000 0.4991
vt 0.7631 0.9393
vt 0.7992 0.9586
vt 0.8386 0.9749
vt 0.8801 0.9875
vt 0.9218 0.9960
vt 0.9623 1.0000
vt 1.0000 0.9994
vt 0.7320 0.4997
vt 0.7320 1.0000
vt 0.6943 0.4991
vt 0.6538 0.5031
vt 0.6120 0.5115
vt 0.5706 0.5242
vt 0.5311 0.5405
vt 0.4951 0.5598
vt 0.4639 0.5814
vt 0.4388 0.6045
vt 0.4388 0.3739
vt 0.4303 0.1588
vt 0.2834 0.4399
vt 0.1554 0.0086
vt 0.0084 0.2897
vt 0.0000 0.2463
vt 0.0000 0.2022
vt 0.0084 0.1588
vt 0.0250 0.1180
vt 0.0490 0.0813
vt 0.0795 0.0501
vt 0.1155 0.0255
vt 0.1978 0.0000
vt 0.2410 0.0000
vt 0.2834 0.0086
vt 0.3233 0.0255
vt 0.3592 0.0501
vt 0.3898 0.0813
vt 0.4138 0.1180
vt 0.4388 0.2022
vt 0.4388 0.2463
vt 0.4303 0.2897
vt 0.4138 0.3305
vt 0.3898 0.3672
vt 0.3592 0.3984
vt 0.3233 0.4230
vt 0.2410 0.4485
vt 0.1978 0.4485
vt 0.1554 0.4399
vt 0.1155 0.4230
vt 0.0795 0.3984
vt 0.0490 0.3672
vt 0.0250 0.3305
vn 0.0000 -0.5033 -0.8641
vn 0.0000 1.0000 0.0000
vn 0.1686 -0.5033 -0.8475
vn 0.3307 -0.5033 -0.7983
vn 0.4801 -0.5033 -0.7185
vn 0.6110 -0.5033 -0.6110
vn 0.7185 -0.5033 -0.4801
vn 0.7983 -0.5033 -0.3307
vn 0.8475 -0.5033 -0.1686
vn 0.8641 -0.5033 0.0000
vn 0.8475 -0.5033 0.1686
vn 0.7983 -0.5033 0.3307
vn 0.7185 -0.5033 0.4801
vn 0.6110 -0.5033 0.6110
vn 0.4801 -0.5033 0.7185
vn 0.3307 -0.5033 0.7983
vn 0.1686 -0.5033 0.8475
vn 0.0000 -0.5033 0.8641
vn -0.1686 -0.5033 0.8475
vn -0.3307 -0.5033 0.7983
vn -0.4801 -0.5033 0.7185
vn -0.6110 -0.5033 0.6110
vn -0.7185 -0.5033 0.4801
vn -0.7983 -0.5033 0.3307
vn -0.8475 -0.5033 0.1686
vn -0.8641 -0.5033 0.0000
vn -0.8475 -0.5033 -0.1686
vn -0.7983 -0.5033 -0.3307
vn -0.7185 -0.5033 -0.4801
vn -0.6110 -0.5033 -0.6110
vn -0.4801 -0.5033 -0.7185
vn -0.3307 -0.5033 -0.7983
vn -0.1686 -0.5033 -0.8475
usemtl None
s 1
f 1/1/1 10/2/2 2/3/3
f 2/3/3 10/2/2 3/4/4
f 3/4/4 10/2/2 4/5/5
f 4/5/5 10/2/2 5/6/6
f 5/6/6 10/2/2 6/7/7
f 6/7/7 10/2/2 7/8/8
f 7/8/8 10/2/2 8/9/9
f 8/9/9 10/2/2 9/10/10
f 9/11/10 10/12/2 11/13/11
f 11/13/11 10/12/2 12/14/12
f 12/14/12 10/12/2 13/15/13
f 13/15/13 10/12/2 14/16/14
f 14/16/14 10/12/2 15/17/15
f 15/17/15 10/12/2 16/18/16
f 16/18/16 10/12/2 17/19/17
f 17/19/17 10/12/2 18/20/18
f 18/21/18 10/22/2 19/23/19
f 19/23/19 10/22/2 20/24/20
f 20/24/20 10/22/2 21/25/21
f 21/25/21 10/22/2 22/26/22
f 22/26/22 10/22/2 23/27/23
f 23/27/23 10/22/2 24/28/24
f 24/28/24 10/22/2 25/29/25
f 25/30/25 10/31/2 26/32/26
f 26/32/26 10/31/2 27/33/27
f 27/33/27 10/31/2 28/34/28
f 28/34/28 10/31/2 29/35/29
f 29/35/29 10/31/2 30/36/30
f 30/36/30 10/31/2 31/37/31
f 31/37/31 10/31/2 32/38/32
f 32/38/32 10/31/2 33/39/33
f 33/40/33 10/2/2 1/1/1
f 17/41/17 25/42/25 8/43/9
f 33/44/33 1/45/1 2/46/3
f 2/46/3 3/47/4 4/48/5
f 4/48/5 5/49/6 6/50/7
f 6/50/7 7/51/8 4/48/5
f 8/43/9 9/52/10 11/53/11
f 11/53/11 12/54/12 8/43/9
f 13/55/13 14/56/14 17/41/17
f 15/57/15 16/58/16 17/41/17
f 17/41/17 18/59/18 19/60/19
f 19/60/19 20/61/20 21/62/21
f 21/62/21 22/63/22 23/64/23
f 23/64/23 24/65/24 25/42/25
f 25/42/25 26/66/26 27/67/27
f 27/67/27 28/68/28 29/69/29
f 29/69/29 30/70/30 33/44/33
f 31/71/31 32/72/32 33/44/33
f 33/44/33 2/46/3 8/43/9
f 4/48/5 7/51/8 8/43/9
f 8/43/9 12/54/12 13/55/13
f 14/56/14 15/57/15 17/41/17
f 17/41/17 19/60/19 25/42/25
f 21/62/21 23/64/23 25/42/25
f 25/42/25 27/67/27 33/44/33
f 30/70/30 31/71/31 33/44/33
f 2/46/3 4/48/5 8/43/9
f 8/43/9 13/55/13 17/41/17
f 19/60/19 21/62/21 25/42/25
f 27/67/27 29/69/29 33/44/33
f 33/44/33 8/43/9 25/42/25
