# Blender v2.78 (sub 0) OBJ File: 'framedcats.blend'
# www.blender.org
mtllib catbasket_zswitch.mtl
o Plane
v -0.089140 3.511150 -3.133319
v -0.081541 0.250403 -3.133319
v -0.089140 3.511150 3.126898
v -0.081541 0.250403 3.126898
vt 0.0167 0.0962
vt 0.9785 0.8984
vt 0.0161 0.8984
vt 0.9779 0.0962
vn -1.0000 -0.0023 0.0000
usemtl None
s off
f 2/1/1 3/2/1 1/3/1
f 2/1/1 4/4/1 3/2/1
o Cube
v -0.041027 0.003773 3.442133
v -0.041027 0.003773 -3.442133
v 0.041027 0.003773 -3.442133
v 0.041027 0.003773 3.442135
v -0.041027 3.798015 3.442132
v -0.041026 3.798015 -3.442136
v 0.041027 3.798015 -3.442132
v 0.041027 3.798015 3.442133
vt 0.9727 0.0339
vt 0.0181 0.0339
vt 0.9662 0.0339
vt 0.9727 0.5636
vt 0.0181 0.5564
vt 0.0116 0.5636
vt 0.0116 0.0339
vt 0.9662 0.5564
vn 0.0000 -1.0000 0.0000
vn 0.0000 1.0000 0.0000
vn -1.0000 -0.0000 0.0000
vn 0.0000 -0.0000 -1.0000
vn 1.0000 -0.0000 0.0000
vn -0.0000 0.0000 1.0000
usemtl Material
s off
f 5/5/2 7/6/2 8/7/2
f 9/8/3 11/9/3 10/10/3
f 9/8/4 6/11/4 5/5/4
f 10/10/5 7/6/5 6/11/5
f 11/9/6 8/7/6 7/6/6
f 5/5/7 12/12/7 9/8/7
f 5/5/2 6/11/2 7/6/2
f 9/8/3 12/12/3 11/9/3
f 9/8/4 10/10/4 6/11/4
f 10/10/5 11/9/5 7/6/5
f 11/9/6 12/12/6 8/7/6
f 5/5/7 8/7/7 12/12/7
