# Blender v2.78 (sub 0) OBJ File: ''
# www.blender.org
mtllib framedcats.mtl
o Plane
v 0.089140 3.511150 3.133319
v 0.081541 0.250403 3.133319
v 0.089140 3.511150 -3.126898
v 0.081541 0.250403 -3.126898
vt 0.0518 0.1255
vt 0.9434 0.8691
vt 0.0512 0.8691
vt 0.9428 0.1255
vn 1.0000 -0.0023 0.0000
usemtl None
s off
f 2/1/1 3/2/1 1/3/1
f 2/1/1 4/4/1 3/2/1
o Cube
v 0.041027 0.003773 -3.442133
v 0.041027 0.003773 3.442133
v -0.041027 0.003773 3.442133
v -0.041027 0.003773 -3.442135
v 0.041027 3.798015 -3.442132
v 0.041026 3.798015 3.442136
v -0.041027 3.798015 3.442132
v -0.041027 3.798015 -3.442133
vt 0.9438 0.4291
vt 0.0622 0.4291
vt 0.9378 0.4291
vt 0.9438 0.9184
vt 0.0622 0.9118
vt 0.0562 0.9184
vt 0.0562 0.4291
vt 0.9378 0.9118
vn 0.0000 -1.0000 -0.0000
vn 0.0000 1.0000 0.0000
vn 1.0000 -0.0000 0.0000
vn -0.0000 -0.0000 1.0000
vn -1.0000 -0.0000 -0.0000
vn 0.0000 0.0000 -1.0000
usemtl Material
s off
f 5/5/2 7/6/2 8/7/2
f 9/8/3 11/9/3 10/10/3
f 9/8/4 6/11/4 5/5/4
f 10/10/5 7/6/5 6/11/5
f 11/9/6 8/7/6 7/6/6
f 5/5/7 12/12/7 9/8/7
f 5/5/2 6/11/2 7/6/2
f 9/8/3 12/12/3 11/9/3
f 9/8/4 10/10/4 6/11/4
f 10/10/5 11/9/5 7/6/5
f 11/9/6 12/12/6 8/7/6
f 5/5/7 8/7/7 12/12/7
