# Blender v2.78 (sub 0) OBJ File: 'walls5.blend'
# www.blender.org
mtllib largeroom.mtl
o Plane.001
v 8.134790 9.394435 20.629004
v -8.015907 9.394435 20.629004
v 8.134790 9.302756 -20.077368
v -8.015907 9.302756 -20.077368
vt 0.0000 0.0000
vt 1.0000 1.0000
vt 0.0000 1.0000
vt 1.0000 0.0000
vn 0.0000 -1.0000 0.0023
usemtl None
s off
f 2/1/1 3/2/1 1/3/1
f 2/1/1 4/4/1 3/2/1
o Plane
v 8.355515 -0.013661 -20.142912
v -7.795183 -0.013661 -20.142912
v 8.355515 -0.013661 20.563646
v -7.795183 -0.013661 20.563646
vt -0.8531 -0.8531
vt 1.8531 1.8531
vt -0.8531 1.8531
vt 1.8531 -0.8531
vn 0.0000 1.0000 0.0000
usemtl None_tile.bmp
s off
f 6/5/2 7/6/2 5/7/2
f 6/5/2 8/8/2 7/6/2
o Cube.003
v -8.076403 -0.061590 -20.102001
v 7.911043 -0.061590 -20.102003
v 7.911041 -0.061590 -18.127609
v -8.076406 -0.061590 -18.127609
v -8.076399 9.326185 -20.102001
v 7.911047 9.326185 -20.102001
v 7.911040 9.326185 -18.127609
v -8.076403 9.326185 -18.127607
vt 0.0000 0.6667
vt 0.1667 1.0000
vt 0.0000 1.0000
vt 0.3333 0.3333
vt 0.1667 0.6667
vt 0.1667 0.3333
vt 0.1667 0.3333
vt 0.3333 0.0000
vt 0.3333 0.3333
vt 0.0000 0.0000
vt 0.1667 0.3333
vt 0.0000 0.3333
vt 0.5000 0.3333
vt 0.3333 0.0000
vt 0.5000 0.0000
vt 0.1667 0.3333
vt 0.0000 0.6667
vt 0.0000 0.3333
vt 0.1667 0.6667
vt 0.3333 0.6667
vt 0.1667 0.0000
vt 0.1667 0.0000
vt 0.3333 0.3333
vt 0.1667 0.6667
vn 0.0000 -1.0000 0.0000
vn 0.0000 1.0000 0.0000
vn 0.0000 0.0000 -1.0000
vn 1.0000 -0.0000 0.0000
vn 0.0000 -0.0000 1.0000
vn -1.0000 0.0000 -0.0000
usemtl Material
s off
f 9/9/3 11/10/3 12/11/3
f 13/12/4 15/13/4 14/14/4
f 13/15/5 10/16/5 9/17/5
f 14/18/6 11/19/6 10/20/6
f 11/21/7 16/22/7 12/23/7
f 9/24/8 16/25/8 13/26/8
f 9/9/3 10/27/3 11/10/3
f 13/12/4 16/28/4 15/13/4
f 13/15/5 14/29/5 10/16/5
f 14/18/6 15/30/6 11/19/6
f 11/21/7 15/31/7 16/22/7
f 9/24/8 12/32/8 16/25/8
o Cube.002
v -8.096056 -0.045660 18.360077
v 7.891389 -0.045660 18.360075
v 7.891388 -0.045660 20.334469
v -8.096059 -0.045660 20.334469
v -8.096052 9.342115 18.360077
v 7.891394 9.342115 18.360077
v 7.891387 9.342115 20.334469
v -8.096056 9.342115 20.334471
vt 0.0000 0.6667
vt 0.1667 1.0000
vt 0.0000 1.0000
vt 0.3333 0.3333
vt 0.1667 0.6667
vt 0.1667 0.3333
vt 0.1667 0.3333
vt 0.3333 0.0000
vt 0.3333 0.3333
vt 0.0000 0.0000
vt 0.1667 0.3333
vt 0.0000 0.3333
vt 0.5000 0.3333
vt 0.3333 0.0000
vt 0.5000 0.0000
vt 0.0000 0.3333
vt 0.1667 0.6667
vt 0.0000 0.6667
vt 0.1667 0.6667
vt 0.3333 0.6667
vt 0.1667 0.0000
vt 0.1667 0.0000
vt 0.3333 0.3333
vt 0.1667 0.3333
vn 0.0000 -1.0000 -0.0000
vn 0.0000 1.0000 0.0000
vn 0.0000 0.0000 -1.0000
vn 1.0000 -0.0000 0.0000
vn 0.0000 -0.0000 1.0000
vn -1.0000 0.0000 -0.0000
usemtl Material_purple.bmp
s off
f 17/33/9 19/34/9 20/35/9
f 21/36/10 23/37/10 22/38/10
f 21/39/11 18/40/11 17/41/11
f 22/42/12 19/43/12 18/44/12
f 19/45/13 24/46/13 20/47/13
f 21/48/14 20/49/14 24/50/14
f 17/33/9 18/51/9 19/34/9
f 21/36/10 24/52/10 23/37/10
f 21/39/11 22/53/11 18/40/11
f 22/42/12 23/54/12 19/43/12
f 19/45/13 23/55/13 24/46/13
f 21/48/14 17/56/14 20/49/14
o Cube.001
v 7.903610 -0.045115 -19.826683
v 7.903610 -0.045115 20.468409
v 7.120251 -0.045115 20.468405
v 7.120251 -0.045115 -19.826693
v 7.903610 9.342661 -19.826674
v 7.903609 9.342661 20.468420
v 7.120251 9.342661 20.468401
v 7.120251 9.342661 -19.826685
vt 0.0000 0.6667
vt 0.1667 1.0000
vt 0.0000 1.0000
vt 0.3333 0.3333
vt 0.1667 0.6667
vt 0.1667 0.3333
vt 0.1667 0.3333
vt 0.3333 0.0000
vt 0.3333 0.3333
vt 0.0000 0.0000
vt 0.1667 0.3333
vt 0.0000 0.3333
vt 0.3333 0.3333
vt 0.5000 0.0000
vt 0.5000 0.3333
vt 0.1667 0.3333
vt 0.0000 0.6667
vt 0.0000 0.3333
vt 0.1667 0.6667
vt 0.3333 0.6667
vt 0.1667 0.0000
vt 0.1667 0.0000
vt 0.3333 0.0000
vt 0.1667 0.6667
vn 0.0000 -1.0000 0.0000
vn 0.0000 1.0000 0.0000
vn 1.0000 0.0000 0.0000
vn -0.0000 -0.0000 1.0000
vn -1.0000 0.0000 0.0000
vn 0.0000 0.0000 -1.0000
usemtl Material_brown.bmp
s off
f 25/57/15 27/58/15 28/59/15
f 29/60/16 31/61/16 30/62/16
f 29/63/17 26/64/17 25/65/17
f 30/66/18 27/67/18 26/68/18
f 31/69/19 28/70/19 27/71/19
f 25/72/20 32/73/20 29/74/20
f 25/57/15 26/75/15 27/58/15
f 29/60/16 32/76/16 31/61/16
f 29/63/17 30/77/17 26/64/17
f 30/66/18 31/78/18 27/67/18
f 31/69/19 32/79/19 28/70/19
f 25/72/20 28/80/20 32/73/20
o Cube
v -7.310487 -0.043935 -20.064978
v -7.310487 -0.043935 20.230114
v -8.093845 -0.043935 20.230110
v -8.093845 -0.043935 -20.064987
v -7.310487 2.983935 -20.064968
v -7.310487 2.983935 20.230125
v -8.093845 2.983935 20.230106
v -8.093845 2.983935 -20.064980
vt 0.0464 0.4659
vt 0.9751 0.4689
vt 0.0194 0.4393
vt 0.0386 0.6380
vt 0.9807 0.6401
vt 0.9583 0.6555
vt 0.9533 0.4925
vt 0.0108 0.6208
vn 0.0000 -1.0000 0.0000
vn 0.0000 1.0000 0.0000
vn 1.0000 0.0000 0.0000
vn -0.0000 -0.0000 1.0000
vn -1.0000 -0.0000 0.0000
vn 0.0000 0.0000 -1.0000
usemtl Material_gray.bmp
s off
f 33/81/21 35/82/21 36/83/21
f 37/84/22 39/85/22 38/86/22
f 37/84/23 34/87/23 33/81/23
f 38/86/24 35/82/24 34/87/24
f 35/82/25 40/88/25 36/83/25
f 33/81/26 40/88/26 37/84/26
f 33/81/21 34/87/21 35/82/21
f 37/84/22 40/88/22 39/85/22
f 37/84/23 38/86/23 34/87/23
f 38/86/24 39/85/24 35/82/24
f 35/82/25 39/85/25 40/88/25
f 33/81/26 36/83/26 40/88/26
