# Blender v2.78 (sub 0) OBJ File: ''
# www.blender.org
o Icosphere
v 0.999944 -1.036578 -0.358139
v 1.723544 -0.483793 0.167581
v 0.723559 -0.483793 0.492501
v 0.105519 -0.483793 -0.358139
v 0.723559 -0.483793 -1.208779
v 1.723544 -0.483793 -0.883859
v 1.276329 0.410637 0.492501
v 0.276344 0.410637 0.167581
v 0.276344 0.410637 -0.883859
v 1.276329 0.410637 -1.208779
v 1.894369 0.410637 -0.358139
v 0.999944 0.963422 -0.358139
vt 0.1694 0.6002
vt 0.2421 0.5396
vt 0.2421 0.6204
vt 0.1570 0.5022
vt 0.1942 0.7804
vt 0.1840 0.7004
vt 0.2637 0.7498
vt 0.1145 0.6204
vt 0.1840 0.6509
vt 0.1044 0.7004
vt 0.1044 0.5598
vt 0.2220 0.4618
vt 0.3535 0.6204
vt 0.4230 0.6509
vt 0.3433 0.7004
vt 0.2637 0.6509
vt 0.1840 0.7498
vt 0.3433 0.7498
vt 0.2738 0.7804
vt 0.2637 0.7004
vt 0.4230 0.7498
vt 0.1942 0.6204
vt 0.3598 0.4618
vt 0.3799 0.5396
vt 0.2947 0.5022
vt 0.1145 0.7804
vt 0.3433 0.6509
vt 0.3535 0.7804
vt 0.3799 0.6204
vt 0.3071 0.6002
vt 0.2421 0.5598
vt 0.2738 0.6204
vn 0.1876 -0.7947 0.5774
vn 0.6071 -0.7947 0.0000
vn -0.4911 -0.7947 0.3568
vn -0.4911 -0.7947 -0.3568
vn 0.1876 -0.7947 -0.5774
vn 0.9822 -0.1876 0.0000
vn 0.3035 -0.1876 0.9342
vn -0.7946 -0.1876 0.5774
vn -0.7946 -0.1876 -0.5774
vn 0.3035 -0.1876 -0.9342
vn 0.7946 0.1876 0.5774
vn -0.3035 0.1876 0.9342
vn -0.9822 0.1876 0.0000
vn -0.3035 0.1876 -0.9342
vn 0.7946 0.1876 -0.5774
vn 0.4911 0.7947 0.3568
vn -0.1876 0.7947 0.5774
vn -0.6071 0.7947 0.0000
vn -0.1876 0.7947 -0.5774
vn 0.4911 0.7947 -0.3568
s off
f 1/1/1 2/2/1 3/3/1
f 2/2/2 1/1/2 6/4/2
f 1/5/3 3/6/3 4/7/3
f 1/8/4 4/9/4 5/10/4
f 1/1/5 5/11/5 6/4/5
f 2/2/6 6/4/6 11/12/6
f 3/13/7 2/14/7 7/15/7
f 4/7/8 3/6/8 8/16/8
f 5/10/9 4/9/9 9/17/9
f 6/18/10 5/19/10 10/20/10
f 2/14/11 11/21/11 7/15/11
f 3/6/12 7/22/12 8/16/12
f 4/23/13 8/24/13 9/25/13
f 5/10/14 9/17/14 10/26/14
f 6/18/15 10/20/15 11/27/15
f 7/15/16 11/21/16 12/28/16
f 8/24/17 7/29/17 12/30/17
f 9/25/18 8/24/18 12/30/18
f 10/31/19 9/25/19 12/30/19
f 11/27/20 10/20/20 12/32/20
o Cube.001
v -1.786098 -1.407931 3.282547
v -1.786098 0.592069 3.282547
v -1.786098 -1.407931 1.282547
v -1.786098 0.592069 1.282547
v 0.213902 -1.407931 3.282547
v 0.213902 0.592069 3.282547
v 0.213902 -1.407931 1.282547
v 0.213902 0.592069 1.282547
vt 0.5490 0.8221
vt 0.5682 0.8029
vt 0.5682 0.8221
vt 0.5298 0.8221
vt 0.5490 0.8029
vt 0.5490 0.8221
vt 0.5298 0.8029
vt 0.5490 0.7837
vt 0.5490 0.7837
vt 0.5682 0.8029
vt 0.5490 0.8029
vt 0.5682 0.8029
vt 0.5874 0.7837
vt 0.5874 0.8029
vt 0.5490 0.8413
vt 0.5298 0.8221
vt 0.5490 0.8221
vt 0.5490 0.8029
vt 0.5298 0.7837
vt 0.5682 0.7837
vt 0.5682 0.7837
vt 0.5298 0.8413
vn -1.0000 0.0000 0.0000
vn 0.0000 0.0000 -1.0000
vn 1.0000 0.0000 0.0000
vn 0.0000 0.0000 1.0000
vn 0.0000 -1.0000 0.0000
vn 0.0000 1.0000 0.0000
s off
f 14/33/21 15/34/21 13/35/21
f 16/36/22 19/37/22 15/38/22
f 20/39/23 17/40/23 19/37/23
f 18/41/24 13/42/24 17/43/24
f 19/44/25 13/45/25 15/46/25
f 16/47/26 18/48/26 20/49/26
f 14/33/21 16/50/21 15/34/21
f 16/36/22 20/39/22 19/37/22
f 20/39/23 18/51/23 17/40/23
f 18/41/24 14/52/24 13/42/24
f 19/44/25 17/53/25 13/45/25
f 16/47/26 14/54/26 18/48/26
o Cube
v 2.290527 -0.635446 -4.371178
v 2.290527 -0.635446 -2.371178
v 0.290527 -0.635446 -2.371178
v 0.290527 -0.635446 -4.371179
v 2.290527 1.364554 -4.371178
v 2.290526 1.364554 -2.371178
v 0.290527 1.364554 -2.371179
v 0.290527 1.364554 -4.371178
vt 0.7746 0.4845
vt 0.5699 0.2798
vt 0.5699 0.4845
vt 0.5699 0.4845
vt 0.7746 0.2798
vt 0.7746 0.4845
vt 0.7828 0.5862
vt 0.5782 0.3815
vt 0.7828 0.3815
vt 0.7746 0.5862
vt 0.5699 0.3815
vt 0.7746 0.3815
vt 0.7828 0.3815
vt 0.9875 0.5862
vt 0.9875 0.3815
vt 0.7746 0.1768
vt 0.5699 0.3815
vt 0.7746 0.3815
vt 0.7746 0.2798
vt 0.5699 0.2798
vt 0.5782 0.5862
vt 0.5699 0.5862
vt 0.7828 0.5862
vt 0.5699 0.1768
vn 0.0000 -1.0000 0.0000
vn 0.0000 1.0000 0.0000
vn 1.0000 -0.0000 0.0000
vn -0.0000 -0.0000 1.0000
vn -1.0000 -0.0000 -0.0000
vn 0.0000 0.0000 -1.0000
s off
f 21/55/27 23/56/27 24/57/27
f 28/58/28 26/59/28 25/60/28
f 25/61/29 22/62/29 21/63/29
f 26/64/30 23/65/30 22/66/30
f 23/67/31 28/68/31 24/69/31
f 21/70/32 28/71/32 25/72/32
f 21/55/27 22/73/27 23/56/27
f 28/58/28 27/74/28 26/59/28
f 25/61/29 26/75/29 22/62/29
f 26/64/30 27/76/30 23/65/30
f 23/67/31 27/77/31 28/68/31
f 21/70/32 24/78/32 28/71/32
