# Blender v2.78 (sub 0) OBJ File: 'twocubes.blend'
# www.blender.org
o Cube.001
v 4.728848 -1.301882 -1.403158
v 4.728848 -1.301882 0.596842
v 2.728848 -1.301882 0.596842
v 2.728848 -1.301882 -1.403159
v 4.728848 0.698118 -1.403158
v 4.728848 0.698118 0.596842
v 2.728848 0.698118 0.596841
v 2.728848 0.698118 -1.403158
vt 0.3333 0.6667
vt 0.0000 1.0000
vt 0.0000 0.6667
vt 0.6667 0.6667
vt 0.3333 0.3333
vt 0.6667 0.3333
vt 0.3333 0.3333
vt 0.6667 0.0000
vt 0.6667 0.3333
vt 0.0000 0.0000
vt 0.3333 0.3333
vt 0.0000 0.3333
vt 1.0000 0.3333
vt 0.6667 0.0000
vt 1.0000 0.0000
vt 0.3333 0.3333
vt 0.0000 0.6667
vt 0.0000 0.3333
vt 0.3333 1.0000
vt 0.3333 0.6667
vt 0.3333 0.0000
vt 0.3333 0.0000
vt 0.6667 0.3333
vt 0.3333 0.6667
vn 0.0000 -1.0000 0.0000
vn 0.0000 1.0000 0.0000
vn 1.0000 -0.0000 0.0000
vn -0.0000 -0.0000 1.0000
vn -1.0000 -0.0000 -0.0000
vn 0.0000 0.0000 -1.0000
s off
f 2/1/1 4/2/1 1/3/1
f 8/4/2 6/5/2 5/6/2
f 5/7/3 2/8/3 1/9/3
f 6/10/4 3/11/4 2/12/4
f 3/13/5 8/14/5 4/15/5
f 1/16/6 8/17/6 5/18/6
f 2/1/1 3/19/1 4/2/1
f 8/4/2 7/20/2 6/5/2
f 5/7/3 6/21/3 2/8/3
f 6/10/4 7/22/4 3/11/4
f 3/13/5 7/23/5 8/14/5
f 1/16/6 4/24/6 8/17/6
o Cube
v 1.000000 -1.000000 -1.000000
v 1.000000 -1.000000 1.000000
v -1.000000 -1.000000 1.000000
v -1.000000 -1.000000 -1.000000
v 1.000000 1.000000 -0.999999
v 0.999999 1.000000 1.000001
v -1.000000 1.000000 1.000000
v -1.000000 1.000000 -1.000000
vt 0.3333 0.6667
vt 0.0000 1.0000
vt 0.0000 0.6667
vt 0.6667 0.6667
vt 0.3333 0.3333
vt 0.6667 0.3333
vt 0.3333 0.3333
vt 0.6667 0.0000
vt 0.6667 0.3333
vt 0.0000 0.0000
vt 0.3333 0.3333
vt 0.0000 0.3333
vt 1.0000 0.3333
vt 0.6667 0.0000
vt 1.0000 0.0000
vt 0.3333 0.3333
vt 0.0000 0.6667
vt 0.0000 0.3333
vt 0.3333 1.0000
vt 0.3333 0.6667
vt 0.3333 0.0000
vt 0.3333 0.0000
vt 0.6667 0.3333
vt 0.3333 0.6667
vn 0.0000 -1.0000 0.0000
vn 0.0000 1.0000 0.0000
vn 1.0000 -0.0000 0.0000
vn 0.0000 -0.0000 1.0000
vn -1.0000 -0.0000 -0.0000
vn 0.0000 0.0000 -1.0000
s off
f 10/25/7 12/26/7 9/27/7
f 16/28/8 14/29/8 13/30/8
f 13/31/9 10/32/9 9/33/9
f 14/34/10 11/35/10 10/36/10
f 11/37/11 16/38/11 12/39/11
f 9/40/12 16/41/12 13/42/12
f 10/25/7 11/43/7 12/26/7
f 16/28/8 15/44/8 14/29/8
f 13/31/9 14/45/9 10/32/9
f 14/34/10 15/46/10 11/35/10
f 11/37/11 15/47/11 16/38/11
f 9/40/12 12/48/12 16/41/12
