# Blender v2.78 (sub 0) OBJ File: ''
# www.blender.org
o Cube.001
v -1.786098 -1.407931 3.282547
v -1.786098 0.592069 3.282547
v -1.786098 -1.407931 1.282547
v -1.786098 0.592069 1.282547
v 0.213902 -1.407931 3.282547
v 0.213902 0.592069 3.282547
v 0.213902 -1.407931 1.282547
v 0.213902 0.592069 1.282547
vt 0.5490 0.8221
vt 0.5682 0.8029
vt 0.5682 0.8221
vt 0.5298 0.8221
vt 0.5490 0.8029
vt 0.5490 0.8221
vt 0.5298 0.8029
vt 0.5490 0.7837
vt 0.5490 0.7837
vt 0.5682 0.8029
vt 0.5490 0.8029
vt 0.5682 0.8029
vt 0.5874 0.7837
vt 0.5874 0.8029
vt 0.5490 0.8413
vt 0.5298 0.8221
vt 0.5490 0.8221
vt 0.5490 0.8029
vt 0.5298 0.7837
vt 0.5682 0.7837
vt 0.5682 0.7837
vt 0.5298 0.8413
vn -1.0000 0.0000 0.0000
vn 0.0000 0.0000 -1.0000
vn 1.0000 0.0000 0.0000
vn 0.0000 0.0000 1.0000
vn 0.0000 -1.0000 0.0000
vn 0.0000 1.0000 0.0000
s off
f 2/1/1 3/2/1 1/3/1
f 4/4/2 7/5/2 3/6/2
f 8/7/3 5/8/3 7/5/3
f 6/9/4 1/10/4 5/11/4
f 7/12/5 1/13/5 3/14/5
f 4/15/6 6/16/6 8/17/6
f 2/1/1 4/18/1 3/2/1
f 4/4/2 8/7/2 7/5/2
f 8/7/3 6/19/3 5/8/3
f 6/9/4 2/20/4 1/10/4
f 7/12/5 5/21/5 1/13/5
f 4/15/6 2/22/6 6/16/6
o Cube
v 2.290527 -0.635446 -4.371178
v 2.290527 -0.635446 -2.371178
v 0.290527 -0.635446 -2.371178
v 0.290527 -0.635446 -4.371179
v 2.290527 1.364554 -4.371178
v 2.290526 1.364554 -2.371178
v 0.290527 1.364554 -2.371179
v 0.290527 1.364554 -4.371178
vt 0.7746 0.4845
vt 0.5699 0.2798
vt 0.5699 0.4845
vt 0.5699 0.4845
vt 0.7746 0.2798
vt 0.7746 0.4845
vt 0.7828 0.5862
vt 0.5782 0.3815
vt 0.7828 0.3815
vt 0.7746 0.5862
vt 0.5699 0.3815
vt 0.7746 0.3815
vt 0.7828 0.3815
vt 0.9875 0.5862
vt 0.9875 0.3815
vt 0.7746 0.1768
vt 0.5699 0.3815
vt 0.7746 0.3815
vt 0.7746 0.2798
vt 0.5699 0.2798
vt 0.5782 0.5862
vt 0.5699 0.5862
vt 0.7828 0.5862
vt 0.5699 0.1768
vn 0.0000 -1.0000 0.0000
vn 0.0000 1.0000 0.0000
vn 1.0000 -0.0000 0.0000
vn -0.0000 -0.0000 1.0000
vn -1.0000 -0.0000 -0.0000
vn 0.0000 0.0000 -1.0000
s off
f 9/23/7 11/24/7 12/25/7
f 16/26/8 14/27/8 13/28/8
f 13/29/9 10/30/9 9/31/9
f 14/32/10 11/33/10 10/34/10
f 11/35/11 16/36/11 12/37/11
f 9/38/12 16/39/12 13/40/12
f 9/23/7 10/41/7 11/24/7
f 16/26/8 15/42/8 14/27/8
f 13/29/9 14/43/9 10/30/9
f 14/32/10 15/44/10 11/33/10
f 11/35/11 15/45/11 16/36/11
f 9/38/12 12/46/12 16/39/12
