# Blender v2.78 (sub 0) OBJ File: 'walls.blend'
# www.blender.org
o Plane.001
v 8.134790 9.348596 -8.065890
v -8.015907 9.348596 -8.065890
v 8.134790 9.348596 8.084807
v -8.015907 9.348596 8.084807
vt 0.9123 0.8255
vt 0.9558 0.8690
vt 0.9123 0.8690
vt 0.9558 0.8255
vn 0.0000 1.0000 0.0000
s off
f 2/1/1 3/2/1 1/3/1
f 2/1/1 4/4/1 3/2/1
o Plane
v 8.355515 -0.013661 -8.091858
v -7.795183 -0.013661 -8.091858
v 8.355515 -0.013661 8.058840
v -7.795183 -0.013661 8.058840
vt 0.5023 -0.0041
vt 0.0023 0.9959
vt 0.0023 -0.0041
vt 0.5023 0.9959
vn 0.0000 1.0000 0.0000
s off
f 6/5/2 7/6/2 5/7/2
f 6/5/2 8/8/2 7/6/2
o Cube.003
v -8.076403 -0.061590 -8.075627
v 7.911043 -0.061590 -8.075627
v 7.911041 -0.061590 -7.292269
v -8.076406 -0.061590 -7.292269
v -8.076399 9.326185 -8.075627
v 7.911047 9.326185 -8.075627
v 7.911040 9.326185 -7.292269
v -8.076403 9.326185 -7.292268
vt 0.7677 0.8996
vt 0.7980 0.9299
vt 0.7677 0.9299
vt 0.8283 0.8693
vt 0.7980 0.8996
vt 0.7980 0.8693
vt 0.7980 0.8693
vt 0.8283 0.8390
vt 0.8283 0.8693
vt 0.7677 0.8390
vt 0.7980 0.8693
vt 0.7677 0.8693
vt 0.8586 0.8693
vt 0.8283 0.8390
vt 0.8586 0.8390
vt 0.7677 0.8693
vt 0.7980 0.8996
vt 0.7677 0.8996
vt 0.7980 0.8996
vt 0.8283 0.8996
vt 0.7980 0.8390
vt 0.7980 0.8390
vt 0.8283 0.8693
vt 0.7980 0.8693
vn 0.0000 -1.0000 0.0000
vn 0.0000 1.0000 0.0000
vn 0.0000 0.0000 -1.0000
vn 1.0000 -0.0000 0.0000
vn 0.0000 -0.0000 1.0000
vn -1.0000 0.0000 -0.0000
s off
f 9/9/3 11/10/3 12/11/3
f 13/12/4 15/13/4 14/14/4
f 13/15/5 10/16/5 9/17/5
f 14/18/6 11/19/6 10/20/6
f 11/21/7 16/22/7 12/23/7
f 13/24/8 12/25/8 16/26/8
f 9/9/3 10/27/3 11/10/3
f 13/12/4 16/28/4 15/13/4
f 13/15/5 14/29/5 10/16/5
f 14/18/6 15/30/6 11/19/6
f 11/21/7 15/31/7 16/22/7
f 13/24/8 9/32/8 12/25/8
o Cube.002
v -8.096056 -0.045660 7.184553
v 7.891389 -0.045660 7.184552
v 7.891388 -0.045660 7.967911
v -8.096059 -0.045660 7.967911
v -8.096052 9.342115 7.184553
v 7.891394 9.342115 7.184553
v 7.891387 9.342115 7.967911
v -8.096056 9.342115 7.967912
vt 0.5202 0.8457
vt 0.5419 0.8673
vt 0.5202 0.8673
vt 0.5635 0.8240
vt 0.5419 0.8457
vt 0.5419 0.8240
vt 0.5419 0.8240
vt 0.5635 0.8024
vt 0.5635 0.8240
vt 0.5202 0.8024
vt 0.5419 0.8240
vt 0.5202 0.8240
vt 0.5852 0.8240
vt 0.5635 0.8024
vt 0.5852 0.8024
vt 0.5419 0.8240
vt 0.5202 0.8457
vt 0.5202 0.8240
vt 0.5419 0.8457
vt 0.5635 0.8457
vt 0.5419 0.8024
vt 0.5419 0.8024
vt 0.5635 0.8240
vt 0.5419 0.8457
vn 0.0000 -1.0000 -0.0000
vn 0.0000 1.0000 0.0000
vn -0.0000 -0.0000 -1.0000
vn 1.0000 -0.0000 0.0000
vn 0.0000 -0.0000 1.0000
vn -1.0000 0.0000 -0.0000
s off
f 17/33/9 19/34/9 20/35/9
f 21/36/10 23/37/10 22/38/10
f 21/39/11 18/40/11 17/41/11
f 22/42/12 19/43/12 18/44/12
f 19/45/13 24/46/13 20/47/13
f 17/48/14 24/49/14 21/50/14
f 17/33/9 18/51/9 19/34/9
f 21/36/10 24/52/10 23/37/10
f 21/39/11 22/53/11 18/40/11
f 22/42/12 23/54/12 19/43/12
f 19/45/13 23/55/13 24/46/13
f 17/48/14 20/56/14 24/49/14
o Cube.001
v 7.903610 -0.045115 -7.966392
v 7.903610 -0.045115 8.021053
v 7.120251 -0.045115 8.021051
v 7.120251 -0.045115 -7.966395
v 7.903610 9.342661 -7.966388
v 7.903609 9.342661 8.021058
v 7.120251 9.342661 8.021050
v 7.120251 9.342661 -7.966393
vt 0.6545 0.8236
vt 0.6817 0.8509
vt 0.6545 0.8509
vt 0.7089 0.7964
vt 0.6817 0.8236
vt 0.6817 0.7964
vt 0.6817 0.7964
vt 0.7089 0.7692
vt 0.7089 0.7964
vt 0.6545 0.7692
vt 0.6817 0.7964
vt 0.6545 0.7964
vt 0.7361 0.7964
vt 0.7089 0.7692
vt 0.7361 0.7692
vt 0.6817 0.7964
vt 0.6545 0.8236
vt 0.6545 0.7964
vt 0.6817 0.8236
vt 0.7089 0.8236
vt 0.6817 0.7692
vt 0.6817 0.7692
vt 0.7089 0.7964
vt 0.6817 0.8236
vn 0.0000 -1.0000 0.0000
vn 0.0000 1.0000 0.0000
vn 1.0000 0.0000 0.0000
vn 0.0000 -0.0000 1.0000
vn -1.0000 -0.0000 0.0000
vn 0.0000 0.0000 -1.0000
s off
f 25/57/15 27/58/15 28/59/15
f 29/60/16 31/61/16 30/62/16
f 29/63/17 26/64/17 25/65/17
f 30/66/18 27/67/18 26/68/18
f 27/69/19 32/70/19 28/71/19
f 25/72/20 32/73/20 29/74/20
f 25/57/15 26/75/15 27/58/15
f 29/60/16 32/76/16 31/61/16
f 29/63/17 30/77/17 26/64/17
f 30/66/18 31/78/18 27/67/18
f 27/69/19 31/79/19 32/70/19
f 25/72/20 28/80/20 32/73/20
o Cube
v -7.310487 -0.043935 -8.060938
v -7.310487 -0.043935 7.926508
v -8.093845 -0.043935 7.926506
v -8.093845 -0.043935 -8.060941
v -7.310487 2.983935 -8.060934
v -7.310487 2.983935 7.926513
v -8.093845 2.983935 7.926505
v -8.093845 2.983935 -8.060938
vt 0.8997 0.8642
vt 0.9249 0.8894
vt 0.8997 0.8894
vt 0.9501 0.8390
vt 0.9249 0.8642
vt 0.9249 0.8390
vt 0.9249 0.8390
vt 0.9501 0.8138
vt 0.9501 0.8390
vt 0.8997 0.8138
vt 0.9249 0.8390
vt 0.8997 0.8390
vt 0.9501 0.8390
vt 0.9753 0.8138
vt 0.9753 0.8390
vt 0.9249 0.8390
vt 0.8997 0.8642
vt 0.8997 0.8390
vt 0.9249 0.8642
vt 0.9501 0.8642
vt 0.9249 0.8138
vt 0.9249 0.8138
vt 0.9501 0.8138
vt 0.9249 0.8642
vn 0.0000 -1.0000 0.0000
vn 0.0000 1.0000 0.0000
vn 1.0000 0.0000 0.0000
vn -0.0000 -0.0000 1.0000
vn -1.0000 -0.0000 0.0000
vn 0.0000 0.0000 -1.0000
s off
f 33/81/21 35/82/21 36/83/21
f 37/84/22 39/85/22 38/86/22
f 37/87/23 34/88/23 33/89/23
f 38/90/24 35/91/24 34/92/24
f 39/93/25 36/94/25 35/95/25
f 33/96/26 40/97/26 37/98/26
f 33/81/21 34/99/21 35/82/21
f 37/84/22 40/100/22 39/85/22
f 37/87/23 38/101/23 34/88/23
f 38/90/24 39/102/24 35/91/24
f 39/93/25 40/103/25 36/94/25
f 33/96/26 36/104/26 40/97/26
