# Blender v2.78 (sub 0) OBJ File: ''
# www.blender.org
mtllib wallart_cats.mtl
o Cube
v 0.041027 0.003773 -3.442133
v 0.041027 0.003773 3.442133
v -0.041027 0.003773 3.442133
v -0.041027 0.003773 -3.442135
v 0.041027 3.798015 -3.442132
v 0.041026 3.798015 3.442136
v -0.041027 3.798015 3.442132
v -0.041027 3.798015 -3.442133
vt 0.9738 0.1058
vt 0.0108 0.1058
vt 0.9692 0.1058
vt 0.9738 0.9590
vt 0.0108 0.9510
vt 0.0062 0.9590
vt 0.0062 0.1058
vt 0.9692 0.9510
vn 0.0000 -1.0000 -0.0000
vn 0.0000 1.0000 0.0000
vn 1.0000 -0.0000 0.0000
vn -0.0000 -0.0000 1.0000
vn -1.0000 -0.0000 -0.0000
vn 0.0000 0.0000 -1.0000
usemtl Material
s off
f 1/1/1 3/2/1 4/3/1
f 5/4/2 7/5/2 6/6/2
f 5/4/3 2/7/3 1/1/3
f 6/6/4 3/2/4 2/7/4
f 7/5/5 4/3/5 3/2/5
f 1/1/6 8/8/6 5/4/6
f 1/1/1 2/7/1 3/2/1
f 5/4/2 8/8/2 7/5/2
f 5/4/3 6/6/3 2/7/3
f 6/6/4 7/5/4 3/2/4
f 7/5/5 8/8/5 4/3/5
f 1/1/6 4/3/6 8/8/6
